<svg width="346" height="508" viewBox="0 0 346 508" fill="none" xmlns="http://www.w3.org/2000/svg">
<path d="M83.5427 10.1244C85.2696 11.1199 87.0078 12.0948 88.7478 13.0672C89.0547 13.2388 89.3615 13.4103 89.6777 13.5871C90.3022 13.9361 90.9268 14.2851 91.5514 14.634C93.0857 15.4913 94.619 16.3504 96.1523 17.2094C97.9918 18.2396 99.8313 19.2697 101.671 20.2988C104.903 22.1068 108.132 23.921 111.355 25.7452C114.331 27.4288 117.315 29.0983 120.299 30.7674C122.135 31.7943 123.97 32.8225 125.806 33.8505C127.34 34.7098 128.875 35.5689 130.41 36.4274C133.642 38.2354 136.87 40.0497 140.093 41.8738C143.377 43.7315 146.67 45.5723 149.963 47.4139C153.813 49.567 157.661 51.7241 161.5 53.897C164.476 55.5806 167.46 57.2501 170.445 58.9192C172.28 59.9461 174.116 60.9743 175.951 62.0023C177.485 62.8617 179.02 63.7207 180.555 64.5792C183.787 66.3872 187.015 68.2015 190.238 70.0256C193.214 71.7092 196.199 73.3787 199.183 75.0478C201.019 76.0748 202.854 77.1029 204.689 78.1309C206.224 78.9903 207.758 79.8494 209.293 80.7078C212.525 82.5158 215.754 84.3301 218.977 86.1543C221.953 87.8379 224.937 89.5073 227.921 91.1764C229.757 92.2034 231.592 93.2316 233.428 94.2595C234.962 95.1189 236.497 95.978 238.032 96.8365C241.264 98.6445 244.492 100.459 247.715 102.283C250.691 103.967 253.675 105.636 256.659 107.305C258.495 108.332 260.331 109.36 262.166 110.388C263.7 111.248 265.235 112.107 266.77 112.965C270.002 114.773 273.23 116.587 276.453 118.412C279.429 120.095 282.413 121.765 285.398 123.434C287.234 124.461 289.069 125.489 290.904 126.517C292.439 127.376 293.973 128.235 295.508 129.094C298.74 130.901 301.968 132.714 305.189 134.54C306.95 135.536 308.716 136.525 310.484 137.509C321.6 143.705 321.6 143.705 325.326 146.825C325.665 147.101 326.004 147.378 326.344 147.654C337.454 156.816 343.884 170.157 345.403 184.372C345.483 185.347 345.532 186.315 345.56 187.293C345.571 187.626 345.583 187.959 345.595 188.302C345.849 202.14 341.121 215.284 332.07 225.709C331.933 225.868 331.795 226.027 331.654 226.191C330.143 227.932 328.581 229.535 326.792 230.987C326.507 231.224 326.223 231.461 325.929 231.705C321.321 235.481 316.096 238.352 310.955 241.327C309.57 242.131 308.192 242.946 306.814 243.762C306.419 243.996 306.419 243.996 306.015 244.235C305.484 244.549 304.953 244.863 304.422 245.178C303.082 245.971 301.741 246.763 300.4 247.556C299.862 247.873 299.324 248.191 298.787 248.509C272.174 264.234 245.562 279.96 211.692 299.974C211.426 300.131 211.16 300.288 210.886 300.45C210.347 300.769 209.808 301.087 209.268 301.406C207.949 302.185 206.631 302.964 205.313 303.745C202.999 305.114 200.684 306.481 198.363 307.839C194.976 309.82 191.593 311.805 188.232 313.83C184.697 315.959 181.137 318.046 177.574 320.129C175.173 321.534 172.779 322.952 170.384 324.369C169.052 325.157 167.718 325.945 166.385 326.733C165.848 327.05 165.31 327.368 164.772 327.686C161.547 329.592 161.547 329.592 160.739 330.069C160.205 330.384 159.672 330.7 159.138 331.015C157.732 331.846 156.326 332.677 154.92 333.507C154.627 333.68 154.334 333.853 154.033 334.031C153.472 334.362 152.912 334.693 152.351 335.024C152.098 335.174 151.845 335.323 151.584 335.477C151.363 335.608 151.141 335.739 150.913 335.874C150.696 336.002 150.48 336.131 150.257 336.263C150.005 336.383 149.753 336.503 149.494 336.626C148.725 337.076 148.725 337.076 148.605 337.87C148.604 338.163 148.603 338.455 148.602 338.757C148.597 339.095 148.592 339.433 148.587 339.781C148.589 340.154 148.591 340.527 148.594 340.911C148.591 341.311 148.587 341.71 148.583 342.11C148.574 343.212 148.574 344.313 148.575 345.415C148.575 346.605 148.566 347.794 148.558 348.983C148.546 351.055 148.539 353.126 148.536 355.197C148.531 358.237 148.517 361.277 148.502 364.316C148.478 369.308 148.459 374.299 148.445 379.29C148.427 385.771 148.402 392.251 148.374 398.732C148.363 401.324 148.352 403.916 148.341 406.508C148.339 407.082 148.336 407.656 148.334 408.23C148.31 413.927 148.288 419.623 148.266 425.32C148.258 427.271 148.251 429.222 148.243 431.173C148.241 431.583 148.241 431.583 148.239 432C148.235 433.096 148.231 434.192 148.226 435.288C148.214 438.24 148.203 441.193 148.192 444.145C148.172 449.637 148.15 455.129 148.12 460.62C148.106 463.087 148.095 465.554 148.088 468.02C148.082 469.863 148.071 471.705 148.059 473.548C148.055 474.289 148.052 475.031 148.051 475.772C148.034 485.386 146.126 493.333 139.27 500.341C133.092 506.219 125.374 508.05 117.12 507.852C110.547 507.563 105.06 503.989 99.724 500.497C98.2115 499.508 96.6878 498.537 95.1626 497.568C94.8888 497.394 94.6149 497.22 94.3327 497.04C92.3692 495.793 90.4028 494.55 88.4352 493.309C86.3796 492.012 84.3293 490.706 82.2792 489.4C80.5522 488.301 78.8229 487.205 77.0912 486.113C74.8089 484.673 72.5319 483.226 70.256 481.776C68.5291 480.676 66.7997 479.581 65.0681 478.488C62.7857 477.049 60.5087 475.601 58.2329 474.152C56.5059 473.052 54.7766 471.956 53.0449 470.864C50.7625 469.424 48.4855 467.977 46.2097 466.527C44.4827 465.427 42.7534 464.332 41.0217 463.24C38.7394 461.8 36.4624 460.352 34.1865 458.903C32.4596 457.803 30.7302 456.707 28.9986 455.615C26.146 453.815 23.2954 452.012 20.4546 450.193C20.0357 449.926 19.6164 449.659 19.1962 449.393C9.62077 443.338 3.23153 434.284 0.730059 423.238C0.276647 421.11 0.0705087 419.069 0.0762023 416.9C0.0754762 416.508 0.0754754 416.508 0.0747346 416.107C0.0734665 415.228 0.0742865 414.349 0.0750926 413.47C0.0746088 412.832 0.0740044 412.194 0.0732759 411.555C0.0716407 409.793 0.0718376 408.03 0.0723273 406.267C0.0725193 404.55 0.0713371 402.833 0.0701974 401.116C0.0678884 397.561 0.0669833 394.005 0.0668414 390.45C0.0666941 386.846 0.0659138 383.242 0.0643714 379.638C0.0642262 379.297 0.0642332 379.297 0.0640851 378.949C0.0636892 378.022 0.0632904 377.095 0.0628859 376.169C0.058104 365.195 0.056227 354.222 0.0548316 343.248C0.0541328 337.784 0.0530458 332.319 0.0518873 326.855C0.0481732 309.326 0.0450155 291.798 0.0440209 274.27C0.0439733 273.432 0.0439176 272.594 0.0438688 271.757C0.0437709 270.076 0.0436793 268.396 0.0435824 266.716C0.043469 264.748 0.043358 262.781 0.0432423 260.814C0.0432094 260.251 0.0431763 259.688 0.0431439 259.125C0.0421032 241.044 0.0376753 222.964 0.0308387 204.884C0.0259285 191.893 0.0213975 178.902 0.0200728 165.911C0.0200454 165.644 0.0200116 165.377 0.0199833 165.102C0.0193912 159.235 0.0190578 153.368 0.0189542 147.501C0.0189142 145.402 0.0188479 143.303 0.0187752 141.203C0.0187571 140.681 0.0187466 140.159 0.0187304 139.637C0.0184608 131.318 0.0155318 123 0.0112578 114.682C0.00696915 106.301 0.00549901 97.9205 0.00786609 89.54C0.00819315 88.3809 0.00849186 87.2218 0.00876996 86.0628C0.00882566 85.8356 0.00887365 85.6084 0.00893104 85.3743C0.0097315 81.7823 0.007585 78.1903 0.00419691 74.5983C0.000923938 71.0629 0.000815081 67.5276 0.00401792 63.9922C0.00560037 62.1024 0.00579682 60.2126 0.00210279 58.3228C-0.00123436 56.6012 -0.000468229 54.8796 0.00347202 53.158C0.00418211 52.5414 0.00344236 51.9247 0.00101099 51.3081C-0.0172685 46.3429 0.343474 41.4313 1.79981 36.6554C1.8749 36.4022 1.94998 36.1491 2.02734 35.8883C4.44589 27.965 8.61212 21.2418 14.1895 15.1566C14.3937 14.9313 14.5978 14.706 14.8081 14.4739C33.9395 -5.63858 61.5803 -2.54874 83.5427 10.1244Z" fill="#25D0A3"/>
<path d="M83.5427 10.1244C85.2697 11.1199 87.0078 12.0948 88.7478 13.0672C89.0547 13.2388 89.3615 13.4103 89.6777 13.5871C90.3022 13.9361 90.9268 14.2851 91.5514 14.634C93.0857 15.4913 94.619 16.3504 96.1523 17.2094C97.9918 18.2396 99.8313 19.2697 101.671 20.2988C104.903 22.1068 108.132 23.921 111.355 25.7452C114.331 27.4288 117.315 29.0983 120.299 30.7673C122.135 31.7943 123.97 32.8225 125.806 33.8505C127.34 34.7098 128.875 35.5689 130.41 36.4274C133.485 38.1477 136.558 39.8713 139.626 41.6039C139.907 41.7625 140.189 41.9211 140.478 42.0845C140.74 42.2325 141.002 42.3805 141.271 42.5329C141.5 42.6619 141.728 42.7909 141.963 42.9238C142.184 43.0507 142.405 43.1776 142.632 43.3084C142.902 43.4575 143.172 43.6065 143.45 43.7601C143.664 43.9014 143.878 44.0426 144.098 44.1882C144.098 44.3817 144.098 44.5753 144.098 44.7747C143.649 45.177 143.181 45.5581 142.705 45.9293C141.143 47.1791 139.667 48.4951 138.201 49.8561C137.457 50.5439 136.703 51.2163 135.942 51.8859C133.312 54.2479 130.735 56.7536 128.454 59.4577C127.848 60.1659 127.211 60.8434 126.577 61.5265C125.184 63.0536 123.908 64.6501 122.644 66.2849C122.096 66.9942 121.538 67.6945 120.97 68.388C118.543 71.3529 116.35 74.4572 114.187 77.6184C113.935 77.9831 113.682 78.3477 113.43 78.7124C106.847 88.3151 101.316 98.8275 96.8855 109.582C96.6289 110.193 96.3723 110.804 96.1157 111.415C96.0068 111.679 95.898 111.943 95.7858 112.215C95.4954 112.917 95.2016 113.618 94.906 114.318C94.0681 116.313 93.2591 118.277 92.6826 120.366C92.4764 121.054 92.2165 121.696 91.9369 122.357C91.0618 124.492 90.4767 126.721 89.8475 128.937C89.6999 129.452 89.5521 129.968 89.4042 130.483C89.0414 131.749 88.6793 133.015 88.3211 134.282C88.1574 134.853 87.9894 135.423 87.8183 135.992C86.9325 138.979 86.2664 141.998 85.6321 145.047C85.575 145.321 85.5179 145.595 85.459 145.877C83.6401 154.645 82.3982 163.44 81.5667 172.355C81.5389 172.649 81.5389 172.649 81.5105 172.949C81.1562 176.877 81.0011 180.786 80.9905 184.728C80.9885 185.203 80.9864 185.679 80.9843 186.154C80.9786 187.664 80.9771 189.174 80.9768 190.684C80.9766 190.941 80.9765 191.198 80.9764 191.463C80.9744 199.001 81.0238 206.485 81.9298 213.979C81.9823 214.429 82.0347 214.879 82.087 215.329C82.4614 218.505 82.9047 221.669 83.3961 224.829C83.4271 225.03 83.4581 225.231 83.49 225.439C87.6511 252.289 97.9844 278.171 136.764 327.251C137.495 327.881 138.202 328.535 138.912 329.188C140.841 330.946 142.851 332.59 144.911 334.192C145.098 334.338 145.286 334.484 145.479 334.635C145.848 334.922 146.218 335.208 146.589 335.492C147.878 336.492 147.878 336.492 148.204 337.143C147.952 337.292 147.7 337.44 147.44 337.594C141.165 341.299 141.165 341.299 134.95 345.105C132.859 346.409 130.755 347.688 128.648 348.964C125.015 351.166 121.394 353.387 117.779 355.617C116.803 356.218 115.827 356.818 114.85 357.417C111.795 359.292 108.745 361.173 105.718 363.093C103.854 364.275 101.983 365.446 100.111 366.614C95.8325 369.286 91.5678 371.979 87.3183 374.697C87.0319 374.88 86.7456 375.063 86.4506 375.252C81.745 378.266 77.0649 381.317 72.3993 384.392C71.9741 384.673 71.9741 384.673 71.5403 384.959C67.1574 387.848 62.7903 390.757 58.47 393.74C58.0406 394.036 58.0406 394.036 57.6026 394.338C53.8499 396.926 50.1268 399.553 46.4468 402.244C46.2139 402.414 45.981 402.584 45.741 402.76C42.819 404.897 39.918 407.056 37.0629 409.282C36.7292 409.54 36.3955 409.797 36.0617 410.055C33.7429 411.853 31.4972 413.723 29.2844 415.65C28.9227 415.965 28.5599 416.278 28.1967 416.591C17.9053 425.34 17.9053 425.34 12.9606 437.47C12.9385 438.1 12.9364 438.727 12.9432 439.358C12.941 439.568 12.9387 439.778 12.9364 439.994C12.9414 441.391 13.217 442.536 13.603 443.885C13.4931 444.6 13.4931 444.6 13.3098 445.058C6.19034 438.269 0.540452 429.048 0.086664 418.945C0.0759477 418.263 0.074412 417.582 0.0762023 416.9C0.0754762 416.508 0.0754754 416.508 0.0747346 416.107C0.0734665 415.228 0.0742865 414.349 0.0750926 413.47C0.0746089 412.832 0.0740044 412.194 0.0732759 411.555C0.0716407 409.793 0.0718376 408.03 0.0723273 406.267C0.0725193 404.55 0.0713371 402.833 0.0701974 401.116C0.0678884 397.561 0.0669833 394.005 0.0668414 390.45C0.0666941 386.846 0.0659138 383.242 0.0643714 379.638C0.0642262 379.297 0.0642332 379.297 0.0640851 378.949C0.0636892 378.022 0.0632904 377.095 0.0628859 376.169C0.058104 365.195 0.056227 354.222 0.0548316 343.248C0.0541328 337.784 0.0530458 332.319 0.0518873 326.855C0.0481732 309.326 0.0450155 291.798 0.0440209 274.27C0.0439734 273.432 0.0439176 272.594 0.0438688 271.757C0.0437709 270.076 0.0436793 268.396 0.0435824 266.716C0.043469 264.748 0.043358 262.781 0.0432423 260.814C0.0432094 260.251 0.0431763 259.688 0.0431439 259.125C0.0421032 241.044 0.0376753 222.964 0.0308387 204.884C0.0259285 191.893 0.0213975 178.902 0.0200728 165.911C0.0200454 165.644 0.0200116 165.377 0.0199833 165.102C0.0193912 159.235 0.0190578 153.368 0.0189542 147.501C0.0189142 145.402 0.0188479 143.303 0.0187752 141.203C0.0187571 140.681 0.0187466 140.159 0.0187304 139.637C0.0184608 131.318 0.0155318 123 0.0112578 114.682C0.00696915 106.301 0.00549901 97.9205 0.00786609 89.54C0.00819315 88.3809 0.00849186 87.2218 0.00876996 86.0628C0.00882566 85.8356 0.00887365 85.6084 0.00893104 85.3743C0.0097315 81.7823 0.007585 78.1903 0.00419691 74.5983C0.000923938 71.0629 0.000815081 67.5276 0.00401792 63.9922C0.00560037 62.1024 0.00579682 60.2126 0.00210279 58.3228C-0.00123436 56.6012 -0.000468229 54.8796 0.00347202 53.158C0.00418211 52.5414 0.00344236 51.9247 0.00101099 51.3081C-0.0172685 46.3429 0.343474 41.4313 1.79981 36.6554C1.8749 36.4022 1.94998 36.1491 2.02734 35.8883C4.44589 27.965 8.61212 21.2418 14.1895 15.1566C14.3937 14.9313 14.5978 14.706 14.8081 14.4739C33.9395 -5.63858 61.5803 -2.54874 83.5427 10.1244Z" fill="#2A83FE"/>
<path d="M148.498 336.85C148.535 364.549 148.501 392.247 148.269 430.211C148.228 436.693 148.193 443.175 148.166 449.656C148.165 449.91 148.164 450.164 148.163 450.425C148.162 450.677 148.161 450.929 148.16 451.189C148.147 454.349 148.131 457.509 148.114 460.669C148.102 463.132 148.091 465.596 148.084 468.059C148.079 469.898 148.069 471.737 148.057 473.575C148.053 474.315 148.05 475.054 148.049 475.793C148.036 485.399 146.119 493.34 139.271 500.341C133.092 506.219 125.374 508.05 117.12 507.852C110.547 507.563 105.06 503.988 99.7244 500.497C98.212 499.508 96.6882 498.537 95.163 497.568C94.7522 497.307 94.7522 497.307 94.3331 497.04C92.3696 495.793 90.4032 494.55 88.4357 493.309C86.38 492.012 84.3297 490.706 82.2796 489.4C80.5526 488.301 78.8233 487.205 77.0916 486.113C74.8093 484.673 72.5323 483.226 70.2564 481.776C68.5295 480.676 66.8002 479.581 65.0685 478.488C62.7861 477.049 60.5091 475.601 58.2333 474.152C56.5063 473.052 54.777 471.956 53.0453 470.864C50.7629 469.424 48.4859 467.977 46.2101 466.527C44.4831 465.427 42.7538 464.332 41.0221 463.239C38.7398 461.8 36.4628 460.352 34.1869 458.903C32.46 457.803 30.7306 456.707 28.999 455.615C19.1097 449.374 19.1097 449.374 16.2427 447.404C15.9902 447.248 15.7376 447.092 15.4775 446.931C14.151 446.046 13.4543 445.323 12.9986 443.775C12.0456 438.602 12.8404 433.984 15.6562 429.516C18.9854 424.718 23.2369 420.383 27.6793 416.613C27.9839 416.349 28.2882 416.084 28.5923 415.819C30.7874 413.913 33.0288 412.083 35.328 410.305C35.9293 409.838 36.5279 409.368 37.1263 408.898C41.6856 405.322 46.3502 401.899 51.0987 398.579C51.714 398.147 52.3266 397.711 52.9388 397.275C57.4944 394.04 62.1616 390.969 66.8157 387.878C68.4598 386.786 70.1022 385.692 71.7433 384.595C79.8647 379.169 79.8647 379.169 83.6897 376.731C83.9282 376.579 84.1668 376.427 84.4125 376.27C86.045 375.229 87.6791 374.19 89.3137 373.152C90.1227 372.638 90.931 372.122 91.7391 371.606C95.394 369.274 99.0648 366.969 102.744 364.675C103.62 364.128 104.496 363.58 105.372 363.031C109.347 360.541 113.336 358.075 117.333 355.621C118.283 355.037 119.232 354.452 120.181 353.867C124.298 351.328 128.426 348.809 132.563 346.303C133.798 345.554 135.032 344.805 136.266 344.055C139.43 342.131 142.595 340.209 145.767 338.298C146.135 338.075 146.135 338.075 146.511 337.847C146.843 337.648 146.843 337.648 147.181 337.444C147.373 337.328 147.565 337.213 147.763 337.094C148.204 336.85 148.204 336.85 148.498 336.85Z" fill="#4CDCFE"/>
<path d="M292.067 135.605C292.775 135.608 293.483 135.605 294.191 135.601C298.163 135.598 302.126 135.855 305.99 136.836C306.185 136.882 306.381 136.928 306.583 136.975C307.79 137.269 308.925 137.66 310.081 138.115C310.74 138.363 310.74 138.363 311.769 138.549C313.486 138.957 314.938 139.933 316.437 140.832C316.749 141.017 317.062 141.202 317.384 141.393C323.491 145.044 329.173 149.372 333.537 155.036C333.764 155.311 333.992 155.586 334.226 155.869C341.286 164.575 345.249 176.124 345.56 187.293C345.572 187.626 345.583 187.959 345.595 188.302C345.849 202.14 341.121 215.284 332.071 225.709C331.864 225.948 331.864 225.948 331.654 226.191C330.143 227.932 328.581 229.535 326.792 230.987C326.507 231.224 326.223 231.461 325.93 231.705C321.329 235.475 316.112 238.343 310.98 241.313C309.471 242.189 307.968 243.076 306.466 243.963C306.193 244.124 305.92 244.285 305.639 244.451C305.387 244.6 305.135 244.749 304.875 244.903C304.654 245.033 304.433 245.164 304.206 245.298C303.711 245.598 303.227 245.915 302.746 246.236C288.954 248.948 273.809 245.723 262.168 238.005C259.825 236.402 257.653 234.631 255.533 232.747C255.242 232.492 254.951 232.237 254.652 231.975C247.867 225.938 242.836 217.88 239.991 209.287C239.806 208.783 239.806 208.783 239.617 208.27C234.834 194.935 236.544 179.767 242.337 167.059C245.135 161.213 249.025 156.182 253.48 151.517C253.657 151.325 253.833 151.133 254.015 150.935C263.674 140.716 278.255 135.532 292.067 135.605Z" fill="#CBFEF9"/>
</svg>
