<svg width="42" height="42" viewBox="0 0 42 42" fill="none" xmlns="http://www.w3.org/2000/svg">
<g clip-path="url(#clip0_6094_896)">
<path d="M20.8729 41.078C20.1966 41.0838 19.5319 40.9021 18.9526 40.5532L11.7126 36.319C9.00228 34.8032 6.74007 32.5988 5.15467 29.9285C3.56927 27.2582 2.71686 24.2168 2.68359 21.1115V9.54193C2.68391 8.76229 2.92298 8.00144 3.36865 7.36173C3.81431 6.72203 4.44519 6.23414 5.17642 5.9637L19.5609 0.679855C20.4081 0.369736 21.3377 0.369736 22.1849 0.679855L36.5694 5.9637C37.3006 6.23414 37.9315 6.72203 38.3772 7.36173C38.8228 8.00144 39.0619 8.76229 39.0622 9.54193V21.1115C39.029 24.2168 38.1765 27.2582 36.5911 29.9285C35.0057 32.5988 32.7435 34.8032 30.0332 36.319L22.7932 40.5532C22.2139 40.9021 21.5492 41.0838 20.8729 41.078ZM20.8729 3.43509C20.7783 3.41786 20.6813 3.41786 20.5866 3.43509L6.20218 8.74279C6.04016 8.80279 5.90112 8.91227 5.80479 9.0557C5.70845 9.19913 5.6597 9.36924 5.66545 9.54193V21.1115C5.70004 23.6953 6.41646 26.2242 7.74224 28.4422C9.06802 30.6602 10.9561 32.4887 13.2155 33.7427L20.4554 37.9888C20.5835 38.0588 20.727 38.0954 20.8729 38.0954C21.0188 38.0954 21.1623 38.0588 21.2904 37.9888L28.5303 33.7427C30.7897 32.4887 32.6778 30.6602 34.0036 28.4422C35.3294 26.2242 36.0458 23.6953 36.0804 21.1115V9.54193C36.0811 9.37328 36.03 9.20846 35.934 9.0698C35.838 8.93113 35.7018 8.82531 35.5436 8.76665L21.1592 3.4828C21.0675 3.44956 20.9704 3.43339 20.8729 3.43509Z" fill="#3477EF"/>
<path d="M19.5616 26.6578C19.2096 26.6555 18.8689 26.5335 18.5954 26.3119L13.5024 22.0181C13.1987 21.7634 13.0087 21.3985 12.974 21.0037C12.9393 20.609 13.0629 20.2165 13.3176 19.9129C13.5722 19.6092 13.9371 19.4191 14.3319 19.3844C14.7267 19.3498 15.1191 19.4733 15.4227 19.728L19.4184 23.0915L26.2409 15.5772C26.5066 15.2831 26.8783 15.1065 27.2743 15.0863C27.6702 15.0662 28.0579 15.2042 28.3521 15.4699C28.6463 15.7356 28.8228 16.1073 28.843 16.5032C28.8631 16.8992 28.7251 17.2869 28.4594 17.5811L20.7304 26.1688C20.5825 26.3299 20.4014 26.457 20.1996 26.5414C19.9978 26.6258 19.7801 26.6655 19.5616 26.6578Z" fill="white"/>
</g>
<defs>
<clipPath id="clip0_6094_896">
<rect width="41.746" height="41.746" fill="white"/>
</clipPath>
</defs>
</svg>
